<?xml version="1.0" encoding="UTF-8"?>
<svg id="b" xmlns="http://www.w3.org/2000/svg" viewBox="0 0 282.21 92.9">
  <defs>
    <style>
      .cls-1 {
        fill: none;
      }

      .cls-2 {
        fill: #1c1c1c;
      }

      .cls-3 {
        isolation: isolate;
      }

      .cls-4 {
        fill: #1b1c1c;
      }
    </style>
  </defs>
  <g id="c">
    <rect class="cls-1" width="282.21" height="92.9"/>
    <g class="cls-3">
      <path class="cls-4" d="M111.24,25.57v3.84h-8.81v17.65h-3.84v-17.65h-8.81v-3.84h21.46Z"/>
      <path class="cls-4" d="M114.33,47.02v-21.49h3.84v21.49h-3.84Z"/>
      <path class="cls-4" d="M141.95,47.02h-4.3l-1.96-3.84-4.7-9.21-4.7,9.21-1.96,3.84h-4.3l1.96-3.84,9-17.65,8.99,17.65,1.96,3.84h0Z"/>
      <path class="cls-4" d="M165.26,25.54v21.49h-3.84v-13.69l-3.77,2.89-3.13,2.43-3.13-2.43-3.78-2.89v13.69h-3.84v-21.49l3.84,2.95,6.91,5.31,6.9-5.31,3.84-2.95h0Z"/>
      <path class="cls-4" d="M189.03,36.28c0,5.92-4.82,10.74-10.74,10.74s-10.74-4.82-10.74-10.74,4.82-10.74,10.74-10.74,10.74,4.82,10.74,10.74ZM185.19,36.28c0-3.81-3.1-6.91-6.9-6.91s-6.91,3.1-6.91,6.91,3.1,6.91,6.91,6.91,6.9-3.1,6.9-6.91Z"/>
      <path class="cls-4" d="M212.81,25.57v21.49l-3.84-2.95-13.81-10.65v13.6h-3.84v-21.42l3.84,2.95,13.81,10.65v-13.69l3.84.03h0Z"/>
      <path class="cls-4" d="M226.58,25.57c5.92,0,10.74,4.79,10.74,10.71,0,2.64-.95,5.06-2.55,6.94-.19.21-.4.43-.61.64-1.93,1.96-4.6,3.16-7.55,3.16h-10.74v-21.49l10.71.03h0ZM219.67,43.22h6.91c3.81,0,6.91-3.1,6.91-6.91s-3.1-6.91-6.91-6.91h-6.91v13.81h0Z"/>
      <path class="cls-4" d="M256.89,31.49v-.12c0-1.07-.89-1.96-1.96-1.96h-8.72c-1.07,0-1.96.89-1.96,1.96v.12c0,1.07.89,1.96,1.96,1.96h7.73c2,0,3.78.86,5,2.21.09.09.15.19.25.28.95,1.17,1.53,2.67,1.53,4.3,0,3.75-3.04,6.78-6.78,6.78h-6.72c-3.75,0-6.78-3.04-6.78-6.78h3.84c0,1.63,1.32,2.95,2.95,2.95h6.72c1.63,0,2.98-1.32,2.98-2.95s-1.35-2.95-2.98-2.95h-7.73c-1.57,0-2.98-.61-4.02-1.63-.28-.28-.52-.58-.74-.92-.64-.92-1.01-2.06-1.01-3.28v-.12c0-3.19,2.58-5.8,5.77-5.8h8.72c3.19,0,5.8,2.61,5.8,5.8v.12l-3.84.03h0Z"/>
    </g>
    <path class="cls-4" d="M78.7,37.5l-11.77-15.35c-.32-.41-.81-.66-1.33-.66h-31.21c-.53,0-1.04.25-1.35.69l-11.26,15.35c-.46.63-.43,1.5.09,2.09l27.12,31.21c.32.37.78.58,1.27.58s.95-.21,1.27-.58l27.12-31.21c.52-.6.55-1.49.07-2.12h-.02ZM35.23,24.85h29.53l9.19,11.99h-12.85c-.73,0-1.38.47-1.6,1.17l-9.27,28.94-9.27-28.94c-.22-.7-.87-1.17-1.6-1.17h-12.94l8.79-11.99h.02ZM73.68,40.2l-17.97,20.68,6.62-20.68h11.35ZM44.77,60.88l-17.97-20.68h11.35l6.62,20.68Z"/>
  </g>
  <g>
    <path class="cls-2" d="M100.63,57.64v1.72h-4.16v7.92h-1.81v-7.92h-4.16v-1.72h10.12Z"/>
    <path class="cls-2" d="M110.91,62.45c0,2.66-2.27,4.82-5.07,4.82s-5.07-2.16-5.07-4.82,2.27-4.82,5.07-4.82,5.07,2.16,5.07,4.82ZM109.1,62.45c0-1.71-1.46-3.1-3.26-3.1s-3.26,1.39-3.26,3.1,1.46,3.1,3.26,3.1,3.26-1.39,3.26-3.1Z"/>
    <path class="cls-2" d="M121.16,57.64v1.72h-4.16v7.92h-1.81v-7.92h-4.16v-1.72h10.12Z"/>
    <path class="cls-2" d="M129.52,67.27h-2.03l-.93-1.72-2.22-4.13-2.22,4.13-.93,1.72h-2.03l.93-1.72,4.24-7.92,4.24,7.92.93,1.72Z"/>
    <path class="cls-2" d="M138.37,65.57v1.72h-5.14c-.51,0-.98-.11-1.42-.32-.64-.3-1.16-.8-1.46-1.41-.22-.41-.33-.87-.33-1.35v-6.57h1.81v6.74c.09.61.59,1.09,1.23,1.17h5.31Z"/>
    <path class="cls-2" d="M156.99,57.64v1.72h-4.16v7.92h-1.81v-7.92h-4.16v-1.72h10.12Z"/>
    <path class="cls-2" d="M167.29,62.45c0,2.66-2.27,4.82-5.07,4.82s-5.07-2.16-5.07-4.82,2.27-4.82,5.07-4.82,5.07,2.16,5.07,4.82ZM165.48,62.45c0-1.71-1.46-3.1-3.26-3.1s-3.26,1.39-3.26,3.1,1.46,3.1,3.26,3.1,3.26-1.39,3.26-3.1Z"/>
    <path class="cls-2" d="M174.09,61.5l4.39,5.77h-2.23l-3.5-4.6-2.56,2.22v2.38h-1.81v-9.65h1.81v4.93l1.49-1.3,1.35-1.17,2.82-2.47h2.68l-4.43,3.87Z"/>
    <path class="cls-2" d="M180.91,60.23v.9h6.52v1.72h-6.52v1.82c0,.48.42.88.93.88h7.4v1.72h-7.4c-1.51,0-2.72-1.17-2.72-2.6v-4.44c0-1.43,1.22-2.6,2.72-2.6h7.4v1.72h-7.4c-.51,0-.93.4-.93.88Z"/>
    <path class="cls-2" d="M200.83,57.64v9.64l-1.81-1.32-6.52-4.78v6.1h-1.81v-9.62l1.81,1.32,6.52,4.78v-6.15h1.81Z"/>
    <path class="cls-2" d="M202.28,67.27v-9.65h1.81v9.65h-1.81Z"/>
    <path class="cls-2" d="M215.71,65.55v1.72h-7.85s-2.29.01-2.29.01h.01s1.39-1.74,1.39-1.74l2.49-3.07,1.14-1.41,1.39-1.71h-6.44v-1.72h10.11l-1.4,1.72-2.52,3.11-1.14,1.41-1.36,1.67h6.47Z"/>
    <path class="cls-2" d="M226.88,67.27h-2.03l-.93-1.72-2.22-4.13-2.22,4.13-.93,1.72h-2.03l.93-1.72,4.24-7.92,4.24,7.92.93,1.72Z"/>
    <path class="cls-2" d="M235,57.64v1.72h-4.16v7.92h-1.81v-7.92h-4.16v-1.72h10.12Z"/>
    <path class="cls-2" d="M236.47,67.27v-9.65h1.81v9.65h-1.81Z"/>
    <path class="cls-2" d="M249.51,62.45c0,2.66-2.27,4.82-5.07,4.82s-5.07-2.16-5.07-4.82,2.27-4.82,5.07-4.82,5.07,2.16,5.07,4.82ZM247.7,62.45c0-1.71-1.46-3.1-3.26-3.1s-3.26,1.39-3.26,3.1,1.46,3.1,3.26,3.1,3.26-1.39,3.26-3.1Z"/>
    <path class="cls-2" d="M260.75,57.64v9.64l-1.81-1.32-6.52-4.78v6.1h-1.81v-9.62l1.81,1.32,6.52,4.78v-6.15h1.81Z"/>
  </g>
</svg>